<svg xmlns="http://www.w3.org/2000/svg" viewBox="0 0 48 16"><path fill="#1A1F71" d="M18.4 2.4h-3.5L12.6 13.6h3.4l2.4-11.2zm11.7 0-3.4 11.2h-3.2L21.6 5.3c-.1-.5-.2-.7-.6-.9-.6-.3-1.5-.6-2.3-.8l.1-.4h4c.5 0 1 .4 1.1 1.1l1 6.2 2.5-7.1h3.3zM36 9.8c0-3-3.4-2.7-3.4-3.8 0-.3.3-.7 1-.8.4 0 1.3 0 2.4.5l.4-2c-.6-.2-1.3-.4-2.2-.4-2.4 0-4 1.3-4 3.1 0 1.3 1.2 2.1 2.1 2.5.9.5 1.2.8 1.2 1.2 0 .6-.7.9-1.4.9-1.2 0-1.9-.3-2.4-.6l-.4 2c.6.3 1.6.5 2.6.5 2.5 0 4.2-1.3 4.1-3.2zm8.3-7.4h-2.5c-.5 0-.9.3-1 .8l-3.7 10.4h3.4l.5-1.7h4.2l.3 1.7H48L44.3 2.4zm-1 7.1 1.4-3.8.8 3.8h-2.2zM22.6 2.4 20 13.6h-3.2l2.6-11.2h3.2z"/></svg>
